<?xml version="1.0" encoding="UTF-8" standalone="no"?><svg width="100%" height="100%" viewBox="0 0 28 10" version="1.1" xmlns="http://www.w3.org/2000/svg" xmlns:xlink="http://www.w3.org/1999/xlink" xml:space="preserve" style="fill-rule:evenodd;clip-rule:evenodd;stroke-linejoin:round;stroke-miterlimit:1.41421;"><g id="Layer_2.-2"><path d="M11.66,5.32l0,0.646l-0.672,0l0,-2.007l0.862,0c0.101,0 0.202,0.011 0.301,0.033c0.094,0.02 0.183,0.057 0.263,0.111c0.079,0.052 0.143,0.123 0.187,0.206c0.094,0.204 0.095,0.439 0.002,0.643c-0.044,0.084 -0.107,0.157 -0.184,0.212c-0.08,0.056 -0.169,0.097 -0.264,0.119c-0.1,0.025 -0.202,0.037 -0.305,0.037l-0.19,0Zm0,-0.836l0,0.323l0.142,0c0.049,0 0.098,-0.013 0.14,-0.038c0.044,-0.028 0.069,-0.078 0.064,-0.129c0.001,-0.027 -0.005,-0.054 -0.017,-0.078c-0.011,-0.02 -0.027,-0.036 -0.047,-0.047c-0.02,-0.012 -0.043,-0.02 -0.066,-0.024c-0.025,-0.005 -0.049,-0.007 -0.074,-0.007l-0.142,0Z" style="fill:#173428;fill-rule:nonzero;"/><path d="M13.883,3.959l0.717,0l0.782,2.007l-0.734,0l-0.105,-0.294l-0.637,0l-0.1,0.294l-0.714,0l0.791,-2.007Zm0.348,0.701l-0.164,0.496l0.326,0l-0.162,-0.496Z" style="fill:#173428;fill-rule:nonzero;"/><path d="M16.922,5.966l-0.675,0l0,-1.437l-0.493,0l0,-0.57l1.661,0l0,0.57l-0.493,0l0,1.437Z" style="fill:#173428;fill-rule:nonzero;"/><path d="M18.189,3.959l0.864,0c0.099,0 0.197,0.01 0.294,0.03c0.093,0.018 0.181,0.054 0.261,0.105c0.077,0.051 0.141,0.12 0.185,0.201c0.051,0.098 0.075,0.207 0.071,0.316c0.007,0.236 -0.133,0.452 -0.35,0.542l0.509,0.813l-0.775,0l-0.385,-0.717l-0.019,0l0,0.717l-0.655,0l0,-2.007Zm0.649,0.848l0.132,0c0.025,0 0.05,-0.002 0.075,-0.006c0.026,-0.003 0.052,-0.011 0.076,-0.024c0.023,-0.012 0.043,-0.029 0.059,-0.051c0.017,-0.025 0.025,-0.056 0.024,-0.086c0.001,-0.03 -0.006,-0.059 -0.02,-0.085c-0.012,-0.02 -0.03,-0.036 -0.051,-0.047c-0.021,-0.011 -0.044,-0.017 -0.067,-0.02c-0.023,-0.003 -0.045,-0.004 -0.068,-0.004l-0.16,0l0,0.323Z" style="fill:#173428;fill-rule:nonzero;"/><path d="M20.689,4.952c-0.002,-0.15 0.027,-0.298 0.085,-0.436c0.054,-0.125 0.134,-0.237 0.234,-0.33c0.103,-0.093 0.223,-0.164 0.353,-0.21c0.287,-0.098 0.598,-0.098 0.885,0c0.13,0.046 0.251,0.118 0.354,0.21c0.101,0.092 0.181,0.205 0.235,0.33c0.058,0.138 0.087,0.286 0.085,0.436c0.002,0.15 -0.027,0.3 -0.085,0.439c-0.054,0.128 -0.134,0.244 -0.235,0.339c-0.103,0.095 -0.223,0.168 -0.354,0.217c-0.286,0.102 -0.599,0.102 -0.885,0c-0.131,-0.048 -0.251,-0.122 -0.353,-0.217c-0.101,-0.096 -0.18,-0.211 -0.234,-0.339c-0.058,-0.139 -0.087,-0.289 -0.085,-0.439l0,0Zm0.717,0c0,0.061 0.01,0.123 0.03,0.181c0.018,0.052 0.046,0.1 0.082,0.142c0.035,0.039 0.078,0.071 0.126,0.092c0.051,0.022 0.105,0.033 0.159,0.032c0.108,0.002 0.212,-0.044 0.284,-0.124c0.037,-0.042 0.065,-0.09 0.083,-0.142c0.021,-0.058 0.031,-0.12 0.03,-0.181c0.001,-0.061 -0.009,-0.121 -0.03,-0.178c-0.018,-0.05 -0.046,-0.097 -0.083,-0.136c-0.036,-0.037 -0.079,-0.066 -0.126,-0.086c-0.05,-0.021 -0.104,-0.032 -0.158,-0.031c-0.054,-0.001 -0.108,0.01 -0.159,0.031c-0.047,0.02 -0.09,0.049 -0.126,0.086c-0.036,0.04 -0.064,0.086 -0.082,0.136c-0.02,0.057 -0.03,0.117 -0.03,0.178l0,0Z" style="fill:#173428;fill-rule:nonzero;"/><path d="M23.771,3.959l0.68,0l0,1.426l0.666,0l0,0.581l-1.346,0l0,-2.007Z" style="fill:#173428;fill-rule:nonzero;"/><path d="M25.894,3.959l0.68,0l0,1.426l0.666,0l0,0.581l-1.346,0l0,-2.007Z" style="fill:#173428;fill-rule:nonzero;"/><path d="M5.438,9.565c-0.05,0.008 -0.101,0.002 -0.149,-0.016l-2.801,-1.06c-0.012,-0.005 -0.024,-0.01 -0.035,-0.016c-1.051,-0.574 -1.775,-1.608 -1.955,-2.791l-0.494,-3.203c-0.016,-0.102 0.019,-0.206 0.095,-0.276l0.584,-0.539c1.866,-1.73 4.611,-2.153 6.911,-1.065l0.719,0.338c0.093,0.044 0.158,0.132 0.174,0.234l0.493,3.203c0.185,1.183 -0.194,2.387 -1.023,3.25c-0.01,0.01 -0.019,0.018 -0.03,0.027l-2.351,1.854c-0.04,0.032 -0.087,0.052 -0.138,0.06Z" style="fill:#70bf54;fill-rule:nonzero;"/><path d="M6.058,3.427c0.264,-0.25 0.713,-0.693 0.54,-0.666c-0.321,0.06 -0.639,0.141 -0.951,0.241l-0.115,-0.418c-0.022,-0.138 -0.252,-0.193 -0.508,-0.211l-0.023,-0.082c0,0 -0.011,0.036 -0.029,0.079c-0.045,-0.002 -0.089,-0.003 -0.134,-0.004l-0.039,-0.291c-0.023,0.1 -0.055,0.198 -0.093,0.293c-0.042,0.001 -0.082,0.002 -0.12,0.004c-0.011,-0.164 -0.009,-0.329 0.006,-0.492l-0.273,0.515c-0.303,0.048 -1.129,0.35 -1.096,0.555l0.02,0.433c-0.328,0.001 -0.655,0.022 -0.98,0.064c-0.172,0.028 0.392,0.311 0.72,0.467c-0.673,0.422 -1.065,1.013 -0.972,1.601c0.149,0.944 2.328,1.531 3.067,1.677c0.767,-0.329 2.549,-1.598 2.399,-2.543c-0.093,-0.587 -0.649,-1.029 -1.419,-1.222Z" style="fill:#fff;fill-rule:nonzero;"/><path d="M6.634,4.644l-0.346,0.054c0.001,-0.009 0.001,-0.019 -0.001,-0.028c-0.001,-0.01 -0.121,-0.421 -0.187,-0.41c-0.066,0.01 -0.052,0.447 -0.052,0.447c0.002,0.01 0.005,0.019 0.008,0.028l-2.674,0.424c0,-0.008 -0.001,-0.016 -0.002,-0.024c-0.001,-0.008 -0.121,-0.42 -0.187,-0.41c-0.066,0.011 -0.052,0.448 -0.052,0.448c0.002,0.008 0.004,0.015 0.006,0.023l-0.335,0.053c-0.058,0.009 -0.101,0.041 -0.097,0.071c0.005,0.031 0.056,0.048 0.114,0.039l1.94,-0.084l1.882,-0.522c0.058,-0.009 0.101,-0.041 0.096,-0.071c-0.004,-0.03 -0.055,-0.047 -0.113,-0.038Z" style="fill:#70bf54;fill-rule:nonzero;"/><path d="M4.276,4.342l0.358,0.112l0.306,-0.218c0,0 -0.017,-0.091 -0.347,-0.039c-0.331,0.053 -0.317,0.145 -0.317,0.145Z" style="fill:#70bf54;fill-rule:nonzero;"/><path d="M3.975,3.968c0.194,-0.036 0.332,-0.215 0.317,-0.412c-0.253,0.028 -0.507,0.031 -0.76,0.009c-0.001,0.023 0.001,0.046 0.004,0.068c0.029,0.212 0.227,0.363 0.439,0.335Z" style="fill:#70bf54;fill-rule:nonzero;"/><path d="M5.247,3.766c0.211,-0.038 0.352,-0.243 0.314,-0.453c-0.003,-0.023 -0.009,-0.045 -0.017,-0.067c-0.234,0.099 -0.477,0.175 -0.725,0.227c0.046,0.192 0.232,0.32 0.428,0.293Z" style="fill:#70bf54;fill-rule:nonzero;"/><path d="M8.313,0.937l-0.719,-0.338c-1.125,-0.532 -2.383,-0.715 -3.613,-0.527l1.463,9.492c0.048,-0.008 0.093,-0.028 0.132,-0.058l2.351,-1.855c0.011,-0.008 0.02,-0.017 0.03,-0.026c0.829,-0.864 1.208,-2.068 1.023,-3.251l-0.493,-3.203c-0.016,-0.102 -0.081,-0.19 -0.174,-0.234l0,0Z" style="fill:#333132;fill-opacity:0.1;fill-rule:nonzero;"/></g></svg>